<?xml version="1.0" encoding="UTF-8"?>
<svg id="Layer_1" xmlns="http://www.w3.org/2000/svg" version="1.1" viewBox="0 0 100 100">
  <!-- Generator: Adobe Illustrator 29.1.0, SVG Export Plug-In . SVG Version: 2.1.0 Build 142)  -->
  <defs>
    <style>
      .st0 {
        fill: #068e10;
      }
    </style>
  </defs>
  <path class="st0" d="M50,15.8c9.1,0,17.7,3.6,24.2,10,6.5,6.5,10,15,10,24.2s-3.6,17.7-10,24.2c-6.5,6.5-15,10-24.2,10s-17.7-3.6-24.2-10c-6.5-6.5-10-15-10-24.2s3.6-17.7,10-24.2c6.5-6.5,15-10,24.2-10M50,2.4C23.7,2.4,2.4,23.7,2.4,50s21.3,47.6,47.6,47.6,47.6-21.3,47.6-47.6S76.3,2.4,50,2.4h0Z"/>
  <g>
    <path class="st0" d="M50,45.9l-8.2-8.2c-2.2-2.3-2.1-5.9,0-8.1,2.2-2.3,5.9-2.3,8.2-.1,2.3-2.2,6-2.2,8.2,0s2.2,5.9,0,8.2l-8.2,8.2Z"/>
    <path class="st0" d="M50,54.1l-8.2,8.2c-2.2,2.3-2.1,5.9,0,8.1,2.2,2.3,5.9,2.3,8.2,0,2.3,2.2,6,2.2,8.2,0s2.2-5.9,0-8.2l-8.2-8.2h0Z"/>
    <path class="st0" d="M45.9,50l-8.2,8.2c-2.3,2.2-5.9,2.1-8.1,0-2.3-2.2-2.3-5.9-.1-8.2-2.2-2.3-2.2-6,0-8.2s5.9-2.2,8.2,0l8.2,8.2Z"/>
    <path class="st0" d="M54.1,50l8.2,8.2c2.3,2.2,5.9,2.1,8.1,0,2.3-2.2,2.3-5.9,0-8.2,2.2-2.3,2.2-6,0-8.2s-5.9-2.2-8.2,0l-8.2,8.2h0Z"/>
  </g>
</svg>