<?xml version="1.0" encoding="UTF-8"?>
<svg id="Layer_1" data-name="Layer 1" xmlns="http://www.w3.org/2000/svg" version="1.1" viewBox="0 0 1920 1080">
  <defs>
    <style>
      .cls-1 {
        fill: #068e10;
        stroke-width: 0px;
      }
    </style>
  </defs>
  <g>
    <path class="cls-1" d="M541.1,276.3c14.7,0,28.6,5.7,39,16.1,10.4,10.4,16.1,24.2,16.1,39s-5.7,28.6-16.1,39c-10.4,10.4-24.2,16.1-39,16.1s-28.6-5.7-39-16.1c-10.4-10.4-16.1-24.2-16.1-39s5.7-28.6,16.1-39c10.4-10.4,24.2-16.1,39-16.1M541.1,254.7c-42.3,0-76.7,34.3-76.7,76.7s34.3,76.7,76.7,76.7,76.7-34.3,76.7-76.7-34.3-76.7-76.7-76.7h0Z"/>
    <g>
      <path class="cls-1" d="M541,324.7l-13.3-13.3c-3.5-3.7-3.5-9.5,0-13.1,3.6-3.6,9.5-3.7,13.2-.2,3.7-3.6,9.7-3.5,13.3.1,3.5,3.6,3.6,9.5,0,13.2-4.4,4.4-8.9,8.9-13.3,13.3Z"/>
      <path class="cls-1" d="M541,338.1l-13.3,13.3c-3.5,3.7-3.5,9.5,0,13.1,3.6,3.6,9.5,3.7,13.2.2,3.7,3.6,9.7,3.5,13.3-.1,3.5-3.6,3.6-9.5,0-13.2-4.4-4.4-8.9-8.9-13.3-13.3Z"/>
      <path class="cls-1" d="M534.4,331.4l-13.3,13.3c-3.7,3.5-9.5,3.5-13.1,0-3.6-3.6-3.7-9.5-.2-13.2-3.6-3.7-3.5-9.7.1-13.3,3.6-3.5,9.5-3.6,13.2,0,4.4,4.4,8.9,8.9,13.3,13.3Z"/>
      <path class="cls-1" d="M547.8,331.4l13.3,13.3c3.7,3.5,9.5,3.5,13.1,0,3.6-3.6,3.7-9.5.2-13.2,3.6-3.7,3.5-9.7-.1-13.3-3.6-3.5-9.5-3.6-13.2,0-4.4,4.4-8.9,8.9-13.3,13.3Z"/>
    </g>
  </g>
  <path class="cls-1" d="M576.7,685.3c0,19.2-15.9,35.1-35.1,35.1s-35.1-15.9-35.1-35.1v-210.3c0-19.2,15.9-35.1,35.1-35.1s35.1,15.9,35.1,35.1v210.3Z"/>
  <path class="cls-1" d="M664.3,439.9v-35.1c0-19.2,15.9-35.1,35.1-35.1s35.1,15.9,35.1,35.1v35.1h52.6c19.2,0,35.1,15.9,35.1,35.1s-15.9,35.1-35.1,35.1h-52.6v105.2c0,19.2,15.9,35.1,35.1,35.1h17.5c19.2,0,35.1,15.9,35.1,35.1s-15.9,35.1-35.1,35.1h-17.5c-58.1,0-105.2-47.1-105.2-105.2v-105.2h-26.3c-19.2,0-35.1-15.9-35.1-35.1s15.9-35.1,35.1-35.1h26.3Z"/>
  <path class="cls-1" d="M1327,580.1l80.5,80.5c7.1,6.6,10.4,15.9,10.4,24.6,0,19.2-15.9,35.1-35.1,35.1s-18.1-3.3-24.6-10.4l-80.5-80.5-80.5,80.5c-6.6,7.1-15.9,10.4-24.6,10.4-19.2,0-35.1-15.9-35.1-35.1v-315.5c0-19.2,15.9-35.1,35.1-35.1s35.1,15.9,35.1,35.1v231.1l150.6-150.6c6.6-6.6,15.3-10.4,24.6-10.4,19.2,0,35.1,15.9,35.1,35.1s-3.8,18.1-10.4,24.6l-80.5,80.5Z"/>
  <path class="cls-1" d="M335.7,439.9c-25.2,0-48.7,7.1-69.6,18.6-6-13.7-19.7-23-35.6-23s-39.4,17.5-39.4,39.4,9.3,29.6,23,36.1c-12.1,20.3-18.6,43.8-18.6,69v210.3c0,19.2,15.9,35.1,35.1,35.1s35.1-15.9,35.1-35.1v-88.7c20.3,12,44.4,18.6,70.1,18.6,77.2,0,140.2-63,140.2-140.2s-63-140.2-140.2-140.2ZM230.3,490.8c-9.8,0-17.8-8-17.8-17.8s8-17.8,17.8-17.8,17.8,8,17.8,17.8-8,17.8-17.8,17.8ZM335.7,650.2c-38.9,0-70.1-31.2-70.1-70.1s31.2-70.1,70.1-70.1,70.1,31.2,70.1,70.1-31.2,70.1-70.1,70.1Z"/>
  <path class="cls-1" d="M1079.4,649.7c11.5-20.8,18.6-44.4,18.6-69.6,0-77.2-63-140.2-140.2-140.2s-140.2,63-140.2,140.2,63,140.2,140.2,140.2,48.7-6.6,69-18.6c6.6,13.7,20.3,23,36.1,23s39.4-17.5,39.4-39.4-9.3-29.6-23-35.6ZM957.9,650.2c-38.9,0-70.1-31.2-70.1-70.1s31.2-70.1,70.1-70.1,70.1,31.2,70.1,70.1-31.2,70.1-70.1,70.1Z"/>
  <path class="cls-1" d="M1706,649.7c11.5-20.8,18.6-44.4,18.6-69.6v-105.2c0-19.2-15.9-35.1-35.1-35.1s-35.1,15.9-35.1,35.1v105.2c0,38.9-31.2,70.1-70.1,70.1s-70.1-31.2-70.1-70.1v-105.2c0-19.2-15.9-35.1-35.1-35.1s-35.1,15.9-35.1,35.1v105.2c0,77.2,63,140.2,140.2,140.2s48.7-6.6,69-18.6c6.6,13.7,20.3,23,36.1,23s39.4-17.5,39.4-39.4-9.3-29.6-23-35.6ZM1689.9,704.4c-9.8,0-17.8-8-17.8-17.8s8-17.8,17.8-17.8,17.8,8,17.8,17.8-8,17.8-17.8,17.8Z"/>
</svg>